# Blender v2.93.5 OBJ File: 'assetsPP3D.blend'
# www.blender.org
mtllib chocolate.mtl
v -0.809308 0.880687 -2.356912
v -0.809308 0.880687 -5.682047
v 0.809308 0.880687 -2.356912
v 0.809308 0.880687 -5.682047
v -0.809308 1.456365 -2.356912
v -0.809308 1.456365 -5.682047
v 0.809308 1.456365 -5.682047
v 0.809308 1.456365 -2.356912
v -0.809308 1.542193 -2.356912
v -0.809308 1.542193 -5.682047
v 0.809308 1.542193 -2.356912
v 0.809308 1.542193 -5.682047
v -0.809308 1.456365 -2.356912
v -0.809308 1.456365 -5.682047
v 0.809308 1.456365 -5.682047
v 0.809308 1.456365 -2.356912
vt 0.000000 0.000000
vt 0.333333 0.000000
vt 0.333333 0.333333
vt 0.000000 0.333333
vt 0.913503 0.333333
vt 0.623418 0.333333
vt 0.623418 0.000000
vt 0.913503 0.000000
vt 0.913503 0.666667
vt 0.623418 0.666667
vt 0.623418 0.333333
vt 0.333333 0.333333
vt 0.333333 0.000000
vt 0.623418 0.000000
vt 0.623418 0.666667
vt 0.333333 0.666667
vt 1.000000 0.333333
vt 0.956751 0.333333
vt 0.956751 0.000000
vt 1.000000 0.000000
vt 0.043249 1.000000
vt 0.000000 1.000000
vt 0.000000 0.666667
vt 0.043249 0.666667
vt 0.956751 0.333333
vt 0.913503 0.333333
vt 0.913503 0.000000
vt 0.956751 0.000000
vt 0.956751 0.666667
vt 0.913503 0.666667
vt 0.913503 0.333333
vt 0.956751 0.333333
vt 0.000000 0.333333
vt 0.333333 0.333333
vt 0.333333 0.666667
vt 0.000000 0.666667
vn 0.0000 -1.0000 0.0000
vn 0.0000 0.0000 1.0000
vn 1.0000 0.0000 0.0000
vn 0.0000 0.0000 -1.0000
vn -1.0000 0.0000 0.0000
vn 0.0000 1.0000 0.0000
g Cube_Cube.004_Material.005
usemtl Material.005
s off
f 2/1/1 4/2/1 3/3/1 1/4/1
f 3/5/2 8/6/2 5/7/2 1/8/2
f 4/9/3 7/10/3 8/6/3 3/5/3
f 2/11/4 6/12/4 7/13/4 4/14/4
f 1/15/5 5/16/5 6/12/5 2/11/5
g Cube_Cube.004_Material.004
usemtl Material.004
f 13/17/5 9/18/5 10/19/5 14/20/5
f 14/21/4 10/22/4 12/23/4 15/24/4
f 15/25/3 12/26/3 11/27/3 16/28/3
f 16/29/2 11/30/2 9/31/2 13/32/2
f 12/33/6 10/34/6 9/35/6 11/36/6
